# xmcd
#
# Track frame offsets:
# 150
# 19645
# 42835
# 67361
# 79145
# 93210
# 113086
# 115748
# 128017
# 148813
# 162365
# 178354
# 196968
# 209021
# 225800
# 250654
# 254568
# 271099
#
# Disc length: 3795 seconds
#
#
# Revision: 0
# Processed by: cddbd v1.5.2PL0 Copyright (c) Steve Scherf et al.
# Submitted via: FreeRIP 2.945 
#
DISCID=fc0ed112
DTITLE=Oswaldinho e Marisa Viana - No Balanço da Rede
DYEAR=2003
DGENRE=Country
TTITLE0=No Balanço da Rede
TTITLE1=Ave da Solidão
TTITLE2=Rainha-Mãe
TTITLE3=Lá no meu Pomar
TTITLE4=Branquinha
TTITLE5=Segredo
TTITLE6=Quintal de Casa
TTITLE7=Um Lugar
TTITLE8=Rezadeira
TTITLE9=Atrevida
TTITLE10=Voz
TTITLE11=Tempo Ausente
TTITLE12=Ô Tempo Bom
TTITLE13=Feitiço de Cantador
TTITLE14=O Pessegueiro e o Maracujá
TTITLE15=Maninha
TTITLE16=Musica Simples
TTITLE17=Cantoria no Panema
EXTD=
EXTT0=Marisa Viana
EXTT1=Oswaldinho Viana
EXTT2=Marisa Viana
EXTT3=Oswaldinho Viana
EXTT4=Marisa Viana
EXTT5=Oswaldinho Viana
EXTT6=Daniel Viana
EXTT7=Oswaldinho Viana - Marisa Viana
EXTT8=Marisa Viana
EXTT9=Oswaldinho Viana - Marisa Viana
EXTT10=Marisa Viana
EXTT11=Oswaldinho Viana
EXTT12=Marisa Viana
EXTT13=Oswaldinho Viana - Marisa Viana
EXTT14=Oswaldinho Viana - Marisa Viana
EXTT15=Daniel Viana
EXTT16=Oswaldinho Viana
EXTT17=Marisa Viana
PLAYORDER=
